<?xml version="1.0" encoding="UTF-8"?>
<svg width="23px" height="23px" viewBox="0 0 23 23" version="1.1" xmlns="http://www.w3.org/2000/svg" xmlns:xlink="http://www.w3.org/1999/xlink">
    <!-- Generator: Sketch 53.1 (72631) - https://sketchapp.com -->
    <title></title>
    <desc>Created with Sketch.</desc>
    <g id="Page-4" stroke="none" stroke-width="1" fill="none" fill-rule="evenodd">
        <g id="3" transform="translate(-960.000000, -564.000000)" fill="#479DD4" fill-rule="nonzero">
            <g id="Group-3-Copy" transform="translate(57.628111, 475.080527)">
                <g id="Group-10-Copy-4">
                    <path d="M911.897626,89.3005583 L915.335118,89.3005583 C915.621576,89.3005583 915.865064,89.4008183 916.065585,89.6013389 C916.266106,89.8018594 916.366365,90.045348 916.366365,90.3318059 L916.366365,97.5505387 L920.147606,97.5505387 C920.520002,97.5505387 920.777813,97.7295749 920.921042,98.0876468 C921.064271,98.4457186 921.006979,98.7536608 920.749168,99.0114727 L914.217933,105.542707 C914.046058,105.714582 913.845538,105.800519 913.616372,105.800519 C913.387206,105.800519 913.186686,105.714582 913.014811,105.542707 L906.483577,99.0114727 C906.225765,98.7536608 906.168473,98.4457186 906.311702,98.0876468 C906.454931,97.7295749 906.712742,97.5505387 907.085138,97.5505387 L910.866379,97.5505387 L910.866379,90.3318059 C910.866379,90.045348 910.966639,89.8018594 911.167159,89.6013389 C911.36768,89.4008183 911.611168,89.3005583 911.897626,89.3005583 Z M924.616346,105.45677 L924.616346,110.269258 C924.616346,110.555716 924.516086,110.799205 924.315565,110.999725 C924.115045,111.200246 923.871556,111.300506 923.585098,111.300506 L903.647646,111.300506 C903.361188,111.300506 903.117699,111.200246 902.917179,110.999725 C902.716658,110.799205 902.616398,110.555716 902.616398,110.269258 L902.616398,105.45677 C902.616398,105.170312 902.716658,104.926823 902.917179,104.726303 C903.117699,104.525782 903.361188,104.425522 903.647646,104.425522 L909.964037,104.425522 L912.069501,106.530986 C912.499187,106.960672 913.014811,107.175516 913.616372,107.175516 C914.217933,107.175516 914.733557,106.960672 915.163243,106.530986 L917.268707,104.425522 L923.585098,104.425522 C923.871556,104.425522 924.115045,104.525782 924.315565,104.726303 C924.516086,104.926823 924.616346,105.170312 924.616346,105.45677 Z M919.288233,109.238011 C919.288233,109.008845 919.202296,108.808324 919.030422,108.63645 C918.858547,108.464575 918.658026,108.378638 918.428861,108.378638 C918.199695,108.378638 917.999174,108.464575 917.827299,108.63645 C917.655425,108.808324 917.569488,109.008845 917.569488,109.238011 C917.569488,109.467177 917.655425,109.667697 917.827299,109.839572 C917.999174,110.011446 918.199695,110.097384 918.428861,110.097384 C918.658026,110.097384 918.858547,110.011446 919.030422,109.839572 C919.202296,109.667697 919.288233,109.467177 919.288233,109.238011 Z M922.038227,109.238011 C922.038227,109.008845 921.95229,108.808324 921.780415,108.63645 C921.60854,108.464575 921.40802,108.378638 921.178854,108.378638 C920.949688,108.378638 920.749168,108.464575 920.577293,108.63645 C920.405418,108.808324 920.319481,109.008845 920.319481,109.238011 C920.319481,109.467177 920.405418,109.667697 920.577293,109.839572 C920.749168,110.011446 920.949688,110.097384 921.178854,110.097384 C921.40802,110.097384 921.60854,110.011446 921.780415,109.839572 C921.95229,109.667697 922.038227,109.467177 922.038227,109.238011 Z" id=""></path>
                </g>
            </g>
        </g>
    </g>
</svg>