<?xml version="1.0" encoding="UTF-8"?>
<svg width="22px" height="23px" viewBox="0 0 22 23" version="1.1" xmlns="http://www.w3.org/2000/svg" xmlns:xlink="http://www.w3.org/1999/xlink">
    <!-- Generator: Sketch 53.1 (72631) - https://sketchapp.com -->
    <title>Shape</title>
    <desc>Created with Sketch.</desc>
    <g id="Page-4" stroke="none" stroke-width="1" fill="none" fill-rule="evenodd">
        <g id="3" transform="translate(-960.000000, -768.000000)" fill="#479DD4" fill-rule="nonzero">
            <g id="Group-3-Copy-2" transform="translate(57.628111, 681.698389)">
                <g id="Group-10-Copy-4">
                    <g id="Group-4-Copy" transform="translate(902.371889, 83.522694)">
                        <path d="M22,9.95566248 L22,8.90991376 L20.6004464,8.47786734 L20.4924107,7.96726703 L21.4794643,6.95097603 L20.96875,5.99851006 L19.5446429,6.36673144 L19.1910714,5.99851006 L19.559375,4.61399767 L18.6214286,4.04448194 L17.5754464,5.0755018 L17.05,4.91839401 L16.70625,3.62225476 L15.5964286,3.62225476 L15.2919643,4.91839401 L14.6977679,5.0755018 L13.7303571,4.04448194 L12.7776786,4.58453996 L13.1754464,5.94450426 L12.7776786,6.3569122 L11.378125,5.98869082 L10.8379464,6.92642793 L11.8544643,7.9574478 L11.7120536,8.46804811 L10.3125,8.85099834 L10.2977679,9.91638553 L11.7120536,10.2846069 L11.8299107,10.8786707 L10.8428571,11.8556848 L11.3535714,12.7639642 L12.8071429,12.3957428 L13.1607143,12.81797 L12.7629464,14.1386573 L13.7401786,14.7081731 L14.6928571,13.7066109 L15.2625,13.8489899 L15.5915179,15.2482311 L16.7013393,15.26296 L17.0303571,13.8489899 L17.6,13.6771532 L18.6165179,14.7376308 L19.6183036,14.143567 L19.1861607,12.7688738 L19.5691964,12.3711947 L20.9834821,12.8032411 L21.4892857,11.8164078 L20.4629464,10.8933996 L20.5709821,10.2993358 L22,9.95566248 L22,9.95566248 Z M16.1464286,12.17481 C14.609375,12.17481 13.3571429,10.9277669 13.3571429,9.38614675 C13.3571429,7.84452657 14.6044643,6.5974835 16.1464286,6.5974835 C17.6883929,6.5974835 18.9357143,7.84452657 18.9357143,9.38614675 C18.9357143,10.9326765 17.6883929,12.17481 16.1464286,12.17481 Z M19.696875,12.9799874 L22,13.6918821 L22,15.6508198 L19.2941964,16.3087087 L19.0928571,17.423192 L21.003125,19.1562873 L20.0602679,21.0170327 L17.4084821,20.1971264 L16.6915179,20.9433884 L17.5116071,23.5209381 L15.6308036,24.6354215 L13.7205357,22.647026 L12.6549107,22.9710608 L12.0361607,25.6222548 L9.95401786,25.5977067 L9.33526786,22.9661512 L8.26964286,22.6912126 L6.48214286,24.576506 L4.64553571,23.5111189 L5.39196429,21.0317616 L4.71919643,20.241313 L1.99375,20.9335692 L1.02633929,19.225022 L2.8875,17.3888247 L2.65178571,16.2694317 L0,15.5771755 L0.0245535714,13.5691416 L2.65178571,12.8474277 L2.93169643,11.8802329 L1.02142857,9.94584324 L2.03794643,8.18819986 L4.67008929,8.88045605 L5.41651786,8.10964597 L4.67008929,5.5566444 L6.45758929,4.5403534 L8.26473214,6.47474304 L9.37946429,6.17525632 L9.94910714,3.62225476 L12.03125,3.62225476 L12.6008929,5.8757696 L11.4910714,5.58610211 L11.1816964,5.5026386 L11.0196429,5.78248685 L10.4794643,6.72022396 L10.3174107,6.99516259 L10.5433036,7.22100504 L11.3879464,8.07527864 L11.3732143,8.12437482 L10.2044643,8.44350002 L9.9,8.52696353 L9.89508929,8.84117911 L9.88526786,9.47451988 C7.55267857,9.98512019 5.79464286,12.0667984 5.79464286,14.5559749 C5.79464286,17.4182824 8.11741071,19.7454415 10.9852679,19.7454415 C13.4651786,19.7454415 15.5375,18.0074366 16.053125,15.6802775 L16.7013393,15.6900968 L17.0401786,15.6950064 L17.11875,15.3660619 L17.39375,14.1877535 L17.4870536,14.1582958 L18.3267857,15.0322079 L18.5575893,15.2727792 L18.8424107,15.1058522 L19.8441964,14.5117883 L20.1290179,14.3399517 L20.0308036,14.0208265 L19.696875,12.9799874 Z" id="Shape"></path>
                    </g>
                </g>
            </g>
        </g>
    </g>
</svg>